<svg width="30" height="30" viewBox="0 0 30 30" fill="none" xmlns="http://www.w3.org/2000/svg">
<g clip-path="url(#clip0_2463_37)">
<path d="M9.1771 12.6056L15.0037 6.78146L20.8326 12.6104L24.2209 9.21965L15.0037 0L5.78638 9.21728L9.1771 12.6056Z" fill="#F1F1F1"/>
<path d="M0 15.0011L3.38836 11.6104L6.77909 15.0011L3.38836 18.3894L0 15.0011Z" fill="#F1F1F1"/>
<path d="M9.17686 17.394L15.0034 23.2205L20.8323 17.3916L24.2231 20.7776L15.0058 29.9972L5.78613 20.7847L9.17686 17.394Z" fill="#F1F1F1"/>
<path d="M23.2209 15.0011L26.6093 11.6104L30 14.9987L26.6093 18.3918L23.2209 15.0011Z" fill="#F1F1F1"/>
<path d="M18.4417 14.9991L15.0035 11.5586L12.4611 14.101L12.1673 14.3925L11.5654 14.9943L15.0035 18.4301L18.4417 15.0015V14.9991Z" fill="#F1F1F1"/>
</g>
<defs>
<clipPath id="clip0_2463_37">
<rect width="30" height="30" fill="white"/>
</clipPath>
</defs>
</svg>
