<svg width="24" height="24" viewBox="0 0 24 24" fill="none" xmlns="http://www.w3.org/2000/svg">
<path d="M11.4675 7.71748C11.5372 7.64719 11.6202 7.59139 11.7116 7.55331C11.803 7.51524 11.901 7.49563 12 7.49563C12.099 7.49563 12.1971 7.51524 12.2885 7.55331C12.3798 7.59139 12.4628 7.64719 12.5325 7.71748L20.0325 15.2175C20.1024 15.2874 20.1579 15.3704 20.1958 15.4618C20.2336 15.5532 20.2531 15.6511 20.2531 15.75C20.2531 15.8489 20.2336 15.9468 20.1958 16.0382C20.1579 16.1295 20.1024 16.2126 20.0325 16.2825C19.9626 16.3524 19.8796 16.4079 19.7882 16.4457C19.6968 16.4836 19.5989 16.5031 19.5 16.5031C19.4011 16.5031 19.3032 16.4836 19.2118 16.4457C19.1205 16.4079 19.0374 16.3524 18.9675 16.2825L12 9.30748L5.03252 16.2825C4.89129 16.4237 4.69974 16.5031 4.50002 16.5031C4.30029 16.5031 4.10874 16.4237 3.96752 16.2825C3.82629 16.1413 3.74695 15.9497 3.74695 15.75C3.74695 15.5503 3.82629 15.3587 3.96752 15.2175L11.4675 7.71748Z" fill="#C1C1C1"/>
</svg>
