<svg width="24" height="24" viewBox="0 0 24 24" fill="none" xmlns="http://www.w3.org/2000/svg">
<path d="M11.4675 16.2825C11.5372 16.3528 11.6202 16.4086 11.7116 16.4467C11.803 16.4848 11.901 16.5044 12 16.5044C12.099 16.5044 12.1971 16.4848 12.2885 16.4467C12.3798 16.4086 12.4628 16.3528 12.5325 16.2825L20.0325 8.78252C20.1024 8.71259 20.1579 8.62957 20.1958 8.5382C20.2336 8.44684 20.2531 8.34891 20.2531 8.25002C20.2531 8.15112 20.2336 8.0532 20.1958 7.96183C20.1579 7.87046 20.1024 7.78745 20.0325 7.71752C19.9626 7.64759 19.8796 7.59212 19.7882 7.55427C19.6968 7.51643 19.5989 7.49695 19.5 7.49695C19.4011 7.49695 19.3032 7.51643 19.2118 7.55427C19.1205 7.59212 19.0374 7.64759 18.9675 7.71752L12 14.6925L5.03252 7.71752C4.89129 7.57629 4.69974 7.49695 4.50002 7.49695C4.30029 7.49695 4.10874 7.57629 3.96752 7.71752C3.82629 7.85874 3.74695 8.05029 3.74695 8.25002C3.74695 8.44974 3.82629 8.64129 3.96752 8.78252L11.4675 16.2825Z" fill="#C1C1C1"/>
</svg>
