<svg width="30" height="30" viewBox="0 0 30 30" fill="none" xmlns="http://www.w3.org/2000/svg">
<g clip-path="url(#clip0_2463_24)">
<path d="M15 0C23.2833 0 30 6.71667 30 15C30 23.2833 23.2833 30 15 30C6.71667 30 0 23.2875 0 15C0 6.7125 6.71667 0 15 0Z" fill="#F1F1F1"/>
<path d="M17.1124 13.3277V11.0943H22.2165V7.69434H8.3207V11.0943H13.4249V13.3277C9.27904 13.5193 6.1582 14.3402 6.1582 15.3235C6.1582 16.3068 9.27904 17.1277 13.4249 17.3193V24.4652H17.1165V17.3193C21.2582 17.1277 24.3707 16.3068 24.3707 15.3235C24.3665 14.3402 21.254 13.5193 17.1124 13.3277ZM17.1165 16.7152C17.0124 16.7193 16.479 16.7527 15.2874 16.7527C14.3332 16.7527 13.6665 16.7277 13.429 16.7152V16.7193C9.76654 16.5568 7.02904 15.9193 7.02904 15.1568C7.02904 14.3943 9.76237 13.7568 13.429 13.5943V16.0777C13.6707 16.0943 14.354 16.136 15.304 16.136C16.4415 16.136 17.0124 16.0902 17.1207 16.0777V13.586C20.779 13.7485 23.5082 14.386 23.5082 15.1485C23.4999 15.911 20.7707 16.5485 17.1165 16.7152Z" fill="#313131"/>
</g>
<defs>
<clipPath id="clip0_2463_24">
<rect width="30" height="30" fill="white"/>
</clipPath>
</defs>
</svg>
